<svg width="20" height="21" viewBox="0 0 20 21" fill="none" xmlns="http://www.w3.org/2000/svg">
<path d="M10 0.913847C4.48 0.913847 0 5.38006 0 10.8831C0 16.3861 4.48 20.8523 10 20.8523C15.52 20.8523 20 16.3861 20 10.8831C20 5.38006 15.52 0.913847 10 0.913847ZM14.64 7.69292C14.49 9.26806 13.84 13.0962 13.51 14.8608C13.37 15.6085 13.09 15.8577 12.83 15.8876C12.25 15.9375 11.81 15.5088 11.25 15.1399C10.37 14.5617 9.87 14.2028 9.02 13.6446C8.03 12.9966 8.67 12.6377 9.24 12.0594C9.39 11.9099 11.95 9.58708 12 9.37772C12.0069 9.34601 12.006 9.3131 11.9973 9.28182C11.9886 9.25055 11.9724 9.22187 11.95 9.19828C11.89 9.14843 11.81 9.16837 11.74 9.17834C11.65 9.19828 10.25 10.1254 7.52 11.9598C7.12 12.2289 6.76 12.3685 6.44 12.3585C6.08 12.3486 5.4 12.1591 4.89 11.9897C4.26 11.7903 3.77 11.6806 3.81 11.3317C3.83 11.1522 4.08 10.9728 4.55 10.7834C7.47 9.51729 9.41 8.67988 10.38 8.28111C13.16 7.12468 13.73 6.92529 14.11 6.92529C14.19 6.92529 14.38 6.94523 14.5 7.04492C14.6 7.12468 14.63 7.23434 14.64 7.31409C14.63 7.37391 14.65 7.55335 14.64 7.69292Z" fill="#FAFCFF"/>
</svg>
